<svg width="100" height="100" viewBox="0 0 100 100" fill="none" xmlns="http://www.w3.org/2000/svg">
<path d="M82.8125 26.1239C84.2445 26.9383 85.4337 28.1196 86.2576 29.5462C87.0814 30.9728 87.5103 32.5932 87.5 34.2406V64.5906C87.5 67.9614 85.6542 71.0698 82.675 72.7073L54.55 90.4989C53.1556 91.2645 51.5907 91.6658 50 91.6658C48.4093 91.6658 46.8443 91.2645 45.45 90.4989L17.325 72.7073C15.8674 71.9107 14.6505 70.7371 13.8017 69.3092C12.9529 67.8814 12.5033 66.2517 12.5 64.5906V34.2364C12.5 30.8656 14.3458 27.7614 17.325 26.1239L45.45 9.5406C46.8856 8.74909 48.4982 8.33398 50.1375 8.33398C51.7768 8.33398 53.3894 8.74909 54.825 9.5406L82.95 26.1239H82.8125Z" fill="#218FFE" stroke="#218FFE" stroke-width="2" stroke-linecap="round" stroke-linejoin="round"/>
<path d="M43.334 49.9987H51.6673C53.8775 49.9987 55.9971 49.1207 57.5599 47.5579C59.1227 45.9951 60.0007 43.8755 60.0007 41.6653C60.0007 39.4552 59.1227 37.3356 57.5599 35.7728C55.9971 34.21 53.8775 33.332 51.6673 33.332H43.334V66.6653" stroke="white" stroke-width="2" stroke-linecap="round" stroke-linejoin="round"/>
</svg>
